<svg width="20" height="20" viewBox="0 0 20 20" fill="none" xmlns="http://www.w3.org/2000/svg">
<path d="M6.78192 11.0657H3.10988C2.00469 11.0657 1.10876 11.9617 1.10876 13.0668V16.7389C1.10876 17.8441 2.00469 18.74 3.10988 18.74H6.78192C7.8871 18.74 8.78303 17.8441 8.78303 16.7389V13.0668C8.78303 11.9617 7.8871 11.0657 6.78192 11.0657Z" stroke="white" stroke-width="1.5" stroke-linecap="round" stroke-linejoin="round"/>
<path d="M17.1077 11.0657H13.4356C12.3304 11.0657 11.4345 11.9617 11.4345 13.0668V16.7389C11.4345 17.8441 12.3304 18.74 13.4356 18.74H17.1077C18.2128 18.74 19.1088 17.8441 19.1088 16.7389V13.0668C19.1088 11.9617 18.2128 11.0657 17.1077 11.0657Z" stroke="white" stroke-width="1.5" stroke-linecap="round" stroke-linejoin="round"/>
<path d="M6.78192 0.73999H3.10988C2.00469 0.73999 1.10876 1.63592 1.10876 2.7411V6.41314C1.10876 7.51833 2.00469 8.41425 3.10988 8.41425H6.78192C7.8871 8.41425 8.78303 7.51833 8.78303 6.41314V2.7411C8.78303 1.63592 7.8871 0.73999 6.78192 0.73999Z" stroke="white" stroke-width="1.5" stroke-linecap="round" stroke-linejoin="round"/>
<path d="M19.1088 4.57712C19.1088 2.45793 17.3908 0.73999 15.2716 0.73999C13.1524 0.73999 11.4345 2.45793 11.4345 4.57712C11.4345 6.69631 13.1524 8.41425 15.2716 8.41425C17.3908 8.41425 19.1088 6.69631 19.1088 4.57712Z" stroke="white" stroke-width="1.5" stroke-linecap="round" stroke-linejoin="round"/>
</svg>
