<svg width="20" height="20" viewBox="0 0 20 20" fill="none" xmlns="http://www.w3.org/2000/svg">
<path fill-rule="evenodd" clip-rule="evenodd" d="M13.408 18.9505C16.5025 18.9505 19 16.4032 19 13.2689V10.1346C19 9.18929 18.2537 8.43308 17.3184 8.43308C16.3831 8.43308 15.6368 9.18929 15.6368 10.1346V8.60223C15.6368 7.65695 14.8905 6.90074 13.9552 6.90074C13.0199 6.90074 12.2736 7.65695 12.2736 8.60223V7.17934C12.2736 6.24402 11.5274 5.47785 10.592 5.47785C9.65672 5.47785 8.91045 6.25397 8.91045 7.17934V2.74153C8.91045 1.79626 8.16418 1.04004 7.22885 1.04004C6.29353 1.04004 5.54726 1.79626 5.54726 2.74153V10.3435L4.20398 7.51765C3.80597 6.67188 2.801 6.32362 1.96518 6.73158C1.35821 7.04004 1 7.64701 1 8.27388C1 8.52263 1.0597 8.78134 1.16915 9.02014L3.2189 13.2789C3.2189 16.4132 5.72637 18.9604 8.81095 18.9604H13.3781L13.408 18.9505Z" stroke="#5F6E8C" stroke-width="1.5" stroke-linecap="round" stroke-linejoin="round"/>
</svg>
