<svg width="21" height="20" viewBox="0 0 21 20" fill="none" xmlns="http://www.w3.org/2000/svg">
<path d="M11.0588 12.78H15.8988M11.0588 15.42H14.8588M4.49875 4.26001H8.04875M3.40875 0.980011H17.4088C18.5133 0.980011 19.4088 1.87544 19.4088 2.98001V16.52C19.4088 17.6246 18.5133 18.52 17.4088 18.52H3.40875C2.30418 18.52 1.40875 17.6246 1.40875 16.52V2.98001C1.40875 1.87544 2.30418 0.980011 3.40875 0.980011ZM6.27875 8.10001C7.26182 8.10001 8.05875 8.89694 8.05875 9.88001V13.64C8.05875 14.6231 7.26182 15.42 6.27875 15.42C5.29569 15.42 4.49875 14.6231 4.49875 13.64V9.88001C4.49875 8.89694 5.29569 8.10001 6.27875 8.10001ZM15.8988 6.47001C15.8988 7.80654 14.8153 8.89001 13.4788 8.89001C12.1422 8.89001 11.0588 7.80654 11.0588 6.47001C11.0588 5.13348 12.1422 4.05001 13.4788 4.05001C14.8153 4.05001 15.8988 5.13348 15.8988 6.47001Z" stroke="white" stroke-width="1.5" stroke-linecap="round" stroke-linejoin="round"/>
</svg>
