<svg width="20" height="20" viewBox="0 0 20 20" fill="none" xmlns="http://www.w3.org/2000/svg">
<path d="M10.7388 4.31H19.1388M10.7388 15.69H19.1388M3.13879 1H5.6088C6.71336 1 7.6088 1.89543 7.6088 3V5.63C7.6088 6.73457 6.71336 7.63 5.6088 7.63H3.13879C2.03422 7.63 1.13879 6.73457 1.13879 5.63V3C1.13879 1.89543 2.03422 1 3.13879 1ZM3.13879 12.37H5.6088C6.71336 12.37 7.6088 13.2654 7.6088 14.37V17C7.6088 18.1046 6.71336 19 5.6088 19H3.13879C2.03422 19 1.13879 18.1046 1.13879 17V14.37C1.13879 13.2654 2.03422 12.37 3.13879 12.37Z" stroke="white" stroke-width="1.5" stroke-linecap="round" stroke-linejoin="round"/>
</svg>
