<svg width="30" height="30" viewBox="0 0 30 30" fill="none" xmlns="http://www.w3.org/2000/svg">
<path d="M15.6 9.31H24M15.6 20.69H24M8 6H10.47C11.5746 6 12.47 6.89543 12.47 8V10.63C12.47 11.7346 11.5746 12.63 10.47 12.63H8C6.89543 12.63 6 11.7346 6 10.63V8C6 6.89543 6.89543 6 8 6ZM8 17.37H10.47C11.5746 17.37 12.47 18.2654 12.47 19.37V22C12.47 23.1046 11.5746 24 10.47 24H8C6.89543 24 6 23.1046 6 22V19.37C6 18.2654 6.89543 17.37 8 17.37Z" stroke="#5038ED" stroke-width="1.5" stroke-linecap="round" stroke-linejoin="round"/>
<rect x="0.75" y="0.75" width="28.5" height="28.5" rx="4.25" stroke="#5038ED" stroke-width="1.5"/>
</svg>
