<svg width="21" height="21" viewBox="0 0 21 21" fill="none" xmlns="http://www.w3.org/2000/svg">
<path d="M1.40875 16.05V7.23997C1.40875 6.13997 2.21875 5.02997 3.21875 4.76997L15.9088 1.50998C16.9088 1.24998 17.7188 1.93998 17.7188 3.03998V6.63998M7.72875 11.14H14.9688M5.84875 11.14H5.90875M7.72875 15.29H14.9688M5.84875 15.29H5.90875M3.40875 6.63998H17.4088C18.5133 6.63998 19.4088 7.53541 19.4088 8.63998V17.45C19.4088 18.5545 18.5133 19.45 17.4088 19.45H3.40875C2.30418 19.45 1.40875 18.5545 1.40875 17.45V8.63998C1.40875 7.53541 2.30418 6.63998 3.40875 6.63998Z" stroke="white" stroke-width="1.5" stroke-linecap="round" stroke-linejoin="round"/>
</svg>
