<svg width="20" height="15" viewBox="0 0 20 15" fill="none" xmlns="http://www.w3.org/2000/svg">
<path d="M1.24878 9.91L5.07878 5.37C5.87878 4.43 7.32877 4.42 8.12877 5.36L10.1588 7.74C10.9388 8.66 12.3488 8.68 13.1588 7.78L14.0988 6.74C14.8988 5.86 16.2788 5.87 17.0688 6.75L19.2488 9.19M3.24878 1H17.2488C18.3533 1 19.2488 1.89543 19.2488 3V11.57C19.2488 12.6746 18.3533 13.57 17.2488 13.57H3.24878C2.14421 13.57 1.24878 12.6746 1.24878 11.57V3C1.24878 1.89543 2.14421 1 3.24878 1Z" stroke="white" stroke-width="1.5" stroke-linecap="round" stroke-linejoin="round"/>
</svg>
