<svg width="20" height="19" viewBox="0 0 20 19" fill="none" xmlns="http://www.w3.org/2000/svg">
<path d="M6.47043 5.24H14.2004M5.99043 7.82H9.67043M3.17043 18V17C3.17043 15.9 3.87043 15 4.74043 15H15.7504C16.6204 15 17.3204 15.9 17.3204 17V18H3.17043ZM17.1504 12.07H3.35043C2.02043 12.07 1.03043 10.79 1.29043 9.42L2.55043 2.78C2.75043 1.74 3.61043 1 4.61043 1H15.8804C16.8804 1 17.7504 1.75 17.9404 2.78L19.2004 9.42C19.4604 10.79 18.4704 12.07 17.1404 12.07H17.1504ZM14.6704 15H5.83043L6.67043 12.07H13.8304L14.6704 15Z" stroke="white" stroke-width="1.5" stroke-linecap="round" stroke-linejoin="round"/>
</svg>
