<svg width="20" height="20" viewBox="0 0 20 20" fill="none" xmlns="http://www.w3.org/2000/svg">
<path d="M2.85897 10.1849C2.809 9.83509 2.78901 9.47529 2.78901 9.1055C2.78901 4.62798 6.41699 1 10.8945 1C15.372 1 19 4.62798 19 9.1055C19 13.583 15.372 17.211 10.8945 17.211C10.4747 17.211 10.075 17.181 9.67518 17.121M8.04609 8.76569C8.26597 7.46641 9.39534 6.47696 10.7646 6.47696C12.2837 6.47696 13.523 7.70628 13.523 9.23543C13.523 10.6446 12.4736 11.804 11.1044 11.9739M8.79567 11.2043L1 14.7524L4.41811 15.5019L5.24764 19L8.79567 11.2043Z" stroke="#5F6E8C" stroke-width="1.5" stroke-linecap="round" stroke-linejoin="round"/>
</svg>
