<svg width="20" height="19" viewBox="0 0 20 19" fill="none" xmlns="http://www.w3.org/2000/svg">
<path d="M13.6018 1.67999H6.5957C5.88609 1.67999 5.22646 2.05999 4.86666 2.67999L1.3686 8.74999C1.0088 9.36999 1.0088 10.13 1.3686 10.75L4.86666 16.82C5.22646 17.44 5.88609 17.82 6.5957 17.82H13.6018C14.3114 17.82 14.971 17.44 15.3308 16.82L18.8289 10.75C19.1887 10.13 19.1887 9.36999 18.8289 8.74999L15.3308 2.67999C14.971 2.05999 14.3114 1.67999 13.6018 1.67999Z" stroke="white" stroke-width="1.5" stroke-linecap="round" stroke-linejoin="round"/>
<path d="M10.1038 12.86C11.8204 12.86 13.212 11.4676 13.212 9.74999C13.212 8.03239 11.8204 6.63999 10.1038 6.63999C8.3871 6.63999 6.99548 8.03239 6.99548 9.74999C6.99548 11.4676 8.3871 12.86 10.1038 12.86Z" stroke="white" stroke-width="1.5" stroke-linecap="round" stroke-linejoin="round"/>
</svg>
